<?xml version="1.0" encoding="UTF-8" standalone="no"?>
<!DOCTYPE svg PUBLIC "-//W3C//DTD SVG 1.1//EN"
 "http://www.w3.org/Graphics/SVG/1.1/DTD/svg11.dtd">
<!-- Generated by graphviz version 13.1.0 (20250701.0955)
 -->
<!-- Title: ms5837_basic_init Pages: 1 -->
<svg width="286pt" height="444pt"
 viewBox="0.00 0.00 286.00 444.00" xmlns="http://www.w3.org/2000/svg" xmlns:xlink="http://www.w3.org/1999/xlink">
<g id="graph0" class="graph" transform="scale(1 1) rotate(0) translate(4 440)">
<title>ms5837_basic_init</title>
<!-- Node1 -->
<g id="Node000001" class="node">
<title>Node1</title>
<g id="a_Node000001"><a xlink:title="basic example init">
<polygon fill="#999999" stroke="#666666" points="97,-222 0,-222 0,-202 97,-202 97,-222"/>
<text xml:space="preserve" text-anchor="middle" x="48.5" y="-208.5" font-family="Helvetica,sans-Serif" font-size="10.00">ms5837_basic_init</text>
</a>
</g>
</g>
<!-- Node2 -->
<g id="Node000002" class="node">
<title>Node2</title>
<g id="a_Node000002"><a xlink:href="group__ms5837__base__driver.html#ga1ef11bdf81061ebf82b7c92d2a773fbf" target="_top" xlink:title="close the chip">
<polygon fill="white" stroke="#666666" points="245,-436 166,-436 166,-416 245,-416 245,-436"/>
<text xml:space="preserve" text-anchor="middle" x="205.5" y="-422.5" font-family="Helvetica,sans-Serif" font-size="10.00">ms5837_deinit</text>
</a>
</g>
</g>
<!-- Node1&#45;&gt;Node2 -->
<g id="edge1_Node000001_Node000002" class="edge">
<title>Node1&#45;&gt;Node2</title>
<g id="a_edge1_Node000001_Node000002"><a xlink:title=" ">
<path fill="none" stroke="#63b8ff" d="M50.75,-222.31C55.26,-254.77 73.66,-355.69 133,-407 139.28,-412.43 146.94,-416.33 154.9,-419.12"/>
<polygon fill="#63b8ff" stroke="#63b8ff" points="153.78,-422.44 164.36,-421.87 155.73,-415.72 153.78,-422.44"/>
</a>
</g>
</g>
<!-- Node3 -->
<g id="Node000003" class="node">
<title>Node3</title>
<g id="a_Node000003"><a xlink:href="group__ms5837__base__driver.html#gab3fa88326383c4f763fb2f2f06505e14" target="_top" xlink:title="initialize the chip">
<polygon fill="white" stroke="#666666" points="239.75,-398 171.25,-398 171.25,-378 239.75,-378 239.75,-398"/>
<text xml:space="preserve" text-anchor="middle" x="205.5" y="-384.5" font-family="Helvetica,sans-Serif" font-size="10.00">ms5837_init</text>
</a>
</g>
</g>
<!-- Node1&#45;&gt;Node3 -->
<g id="edge2_Node000001_Node000003" class="edge">
<title>Node1&#45;&gt;Node3</title>
<g id="a_edge2_Node000001_Node000003"><a xlink:title=" ">
<path fill="none" stroke="#63b8ff" d="M51.9,-222.28C59.02,-250.39 82.7,-329.08 133,-369 140.74,-375.14 150.28,-379.31 159.84,-382.13"/>
<polygon fill="#63b8ff" stroke="#63b8ff" points="158.95,-385.52 169.5,-384.5 160.63,-378.72 158.95,-385.52"/>
</a>
</g>
</g>
<!-- Node4 -->
<g id="Node000004" class="node">
<title>Node4</title>
<g id="a_Node000004"><a xlink:href="group__ms5837__interface__driver.html#gac8bc18872df28a3bdac03bb69dff830d" target="_top" xlink:title="interface print format data">
<polygon fill="white" stroke="#666666" points="267.88,-360 143.12,-360 143.12,-328 267.88,-328 267.88,-360"/>
<text xml:space="preserve" text-anchor="start" x="151.12" y="-346.5" font-family="Helvetica,sans-Serif" font-size="10.00">ms5837_interface_debug</text>
<text xml:space="preserve" text-anchor="middle" x="205.5" y="-334.5" font-family="Helvetica,sans-Serif" font-size="10.00">_print</text>
</a>
</g>
</g>
<!-- Node1&#45;&gt;Node4 -->
<g id="edge3_Node000001_Node000004" class="edge">
<title>Node1&#45;&gt;Node4</title>
<g id="a_edge3_Node000001_Node000004"><a xlink:title=" ">
<path fill="none" stroke="#63b8ff" d="M54.93,-222.44C66.46,-243.66 95.47,-292.08 133,-319 134.54,-320.11 136.14,-321.17 137.78,-322.19"/>
<polygon fill="#63b8ff" stroke="#63b8ff" points="135.77,-325.08 146.22,-326.82 139.14,-318.94 135.77,-325.08"/>
</a>
</g>
</g>
<!-- Node5 -->
<g id="Node000005" class="node">
<title>Node5</title>
<g id="a_Node000005"><a xlink:href="group__ms5837__interface__driver.html#ga59767ee91bc6dafa521a59fb8d9710ab" target="_top" xlink:title="interface delay ms">
<polygon fill="white" stroke="#666666" points="275.75,-310 135.25,-310 135.25,-290 275.75,-290 275.75,-310"/>
<text xml:space="preserve" text-anchor="middle" x="205.5" y="-296.5" font-family="Helvetica,sans-Serif" font-size="10.00">ms5837_interface_delay_ms</text>
</a>
</g>
</g>
<!-- Node1&#45;&gt;Node5 -->
<g id="edge4_Node000001_Node000005" class="edge">
<title>Node1&#45;&gt;Node5</title>
<g id="a_edge4_Node000001_Node000005"><a xlink:title=" ">
<path fill="none" stroke="#63b8ff" d="M59.01,-222.29C73.52,-237.38 102.73,-265.43 133,-281 136.42,-282.76 140.01,-284.36 143.69,-285.83"/>
<polygon fill="#63b8ff" stroke="#63b8ff" points="142.22,-289.02 152.81,-289.09 144.57,-282.43 142.22,-289.02"/>
</a>
</g>
</g>
<!-- Node6 -->
<g id="Node000006" class="node">
<title>Node6</title>
<g id="a_Node000006"><a xlink:href="group__ms5837__interface__driver.html#ga36e40c0aa18afea98143c0d102d94999" target="_top" xlink:title="interface iic bus deinit">
<polygon fill="white" stroke="#666666" points="259.62,-272 151.38,-272 151.38,-240 259.62,-240 259.62,-272"/>
<text xml:space="preserve" text-anchor="start" x="159.38" y="-258.5" font-family="Helvetica,sans-Serif" font-size="10.00">ms5837_interface_iic</text>
<text xml:space="preserve" text-anchor="middle" x="205.5" y="-246.5" font-family="Helvetica,sans-Serif" font-size="10.00">_deinit</text>
</a>
</g>
</g>
<!-- Node1&#45;&gt;Node6 -->
<g id="edge5_Node000001_Node000006" class="edge">
<title>Node1&#45;&gt;Node6</title>
<g id="a_edge5_Node000001_Node000006"><a xlink:title=" ">
<path fill="none" stroke="#63b8ff" d="M86.23,-222.43C102.32,-226.99 121.69,-232.49 140.05,-237.7"/>
<polygon fill="#63b8ff" stroke="#63b8ff" points="138.98,-241.04 149.55,-240.4 140.89,-234.3 138.98,-241.04"/>
</a>
</g>
</g>
<!-- Node7 -->
<g id="Node000007" class="node">
<title>Node7</title>
<g id="a_Node000007"><a xlink:href="group__ms5837__interface__driver.html#ga65d2e3dc26f533758ae81c15fe66016c" target="_top" xlink:title="interface iic bus init">
<polygon fill="white" stroke="#666666" points="268.62,-222 142.38,-222 142.38,-202 268.62,-202 268.62,-222"/>
<text xml:space="preserve" text-anchor="middle" x="205.5" y="-208.5" font-family="Helvetica,sans-Serif" font-size="10.00">ms5837_interface_iic_init</text>
</a>
</g>
</g>
<!-- Node1&#45;&gt;Node7 -->
<g id="edge6_Node000001_Node000007" class="edge">
<title>Node1&#45;&gt;Node7</title>
<g id="a_edge6_Node000001_Node000007"><a xlink:title=" ">
<path fill="none" stroke="#63b8ff" d="M97.27,-212C107.88,-212 119.36,-212 130.74,-212"/>
<polygon fill="#63b8ff" stroke="#63b8ff" points="130.53,-215.5 140.53,-212 130.53,-208.5 130.53,-215.5"/>
</a>
</g>
</g>
<!-- Node8 -->
<g id="Node000008" class="node">
<title>Node8</title>
<g id="a_Node000008"><a xlink:href="group__ms5837__interface__driver.html#ga297b176a77874255e8f6c40f9103b380" target="_top" xlink:title="interface iic bus read">
<polygon fill="white" stroke="#666666" points="271.62,-184 139.38,-184 139.38,-164 271.62,-164 271.62,-184"/>
<text xml:space="preserve" text-anchor="middle" x="205.5" y="-170.5" font-family="Helvetica,sans-Serif" font-size="10.00">ms5837_interface_iic_read</text>
</a>
</g>
</g>
<!-- Node1&#45;&gt;Node8 -->
<g id="edge7_Node000001_Node000008" class="edge">
<title>Node1&#45;&gt;Node8</title>
<g id="a_edge7_Node000001_Node000008"><a xlink:title=" ">
<path fill="none" stroke="#63b8ff" d="M92.26,-201.52C110.39,-197.07 131.72,-191.84 150.88,-187.15"/>
<polygon fill="#63b8ff" stroke="#63b8ff" points="151.53,-190.59 160.4,-184.81 149.86,-183.79 151.53,-190.59"/>
</a>
</g>
</g>
<!-- Node9 -->
<g id="Node000009" class="node">
<title>Node9</title>
<g id="a_Node000009"><a xlink:href="group__ms5837__interface__driver.html#ga5381fee9c48c01564667625ba40ad6e3" target="_top" xlink:title="interface iic bus write">
<polygon fill="white" stroke="#666666" points="259.62,-146 151.38,-146 151.38,-114 259.62,-114 259.62,-146"/>
<text xml:space="preserve" text-anchor="start" x="159.38" y="-132.5" font-family="Helvetica,sans-Serif" font-size="10.00">ms5837_interface_iic</text>
<text xml:space="preserve" text-anchor="middle" x="205.5" y="-120.5" font-family="Helvetica,sans-Serif" font-size="10.00">_write</text>
</a>
</g>
</g>
<!-- Node1&#45;&gt;Node9 -->
<g id="edge8_Node000001_Node000009" class="edge">
<title>Node1&#45;&gt;Node9</title>
<g id="a_edge8_Node000001_Node000009"><a xlink:title=" ">
<path fill="none" stroke="#63b8ff" d="M62.42,-201.58C78.28,-189.17 106.37,-168.45 133,-155 135.86,-153.56 138.83,-152.16 141.85,-150.81"/>
<polygon fill="#63b8ff" stroke="#63b8ff" points="143.01,-154.12 150.88,-147.04 140.31,-147.67 143.01,-154.12"/>
</a>
</g>
</g>
<!-- Node10 -->
<g id="Node000010" class="node">
<title>Node10</title>
<g id="a_Node000010"><a xlink:href="group__ms5837__base__driver.html#ga34d917ee164092c37ae83f2fbc012ac8" target="_top" xlink:title="set the adc pressure osr">
<polygon fill="white" stroke="#666666" points="270.88,-96 140.12,-96 140.12,-76 270.88,-76 270.88,-96"/>
<text xml:space="preserve" text-anchor="middle" x="205.5" y="-82.5" font-family="Helvetica,sans-Serif" font-size="10.00">ms5837_set_pressure_osr</text>
</a>
</g>
</g>
<!-- Node1&#45;&gt;Node10 -->
<g id="edge9_Node000001_Node000010" class="edge">
<title>Node1&#45;&gt;Node10</title>
<g id="a_edge9_Node000001_Node000010"><a xlink:title=" ">
<path fill="none" stroke="#63b8ff" d="M54.59,-201.65C65.7,-180.16 94.27,-130.59 133,-105 135.13,-103.59 137.37,-102.29 139.67,-101.08"/>
<polygon fill="#63b8ff" stroke="#63b8ff" points="141.08,-104.28 148.77,-96.99 138.22,-97.89 141.08,-104.28"/>
</a>
</g>
</g>
<!-- Node11 -->
<g id="Node000011" class="node">
<title>Node11</title>
<g id="a_Node000011"><a xlink:href="group__ms5837__base__driver.html#gad9b216a09ff48321cc97d1998933bb6f" target="_top" xlink:title="set the adc temperature osr">
<polygon fill="white" stroke="#666666" points="278,-58 133,-58 133,-38 278,-38 278,-58"/>
<text xml:space="preserve" text-anchor="middle" x="205.5" y="-44.5" font-family="Helvetica,sans-Serif" font-size="10.00">ms5837_set_temperature_osr</text>
</a>
</g>
</g>
<!-- Node1&#45;&gt;Node11 -->
<g id="edge10_Node000001_Node000011" class="edge">
<title>Node1&#45;&gt;Node11</title>
<g id="a_edge10_Node000001_Node000011"><a xlink:title=" ">
<path fill="none" stroke="#63b8ff" d="M52.38,-201.73C60.38,-175.11 85.51,-103.41 133,-67 134.54,-65.82 136.15,-64.71 137.81,-63.67"/>
<polygon fill="#63b8ff" stroke="#63b8ff" points="139.25,-66.87 146.5,-59.14 136.01,-60.66 139.25,-66.87"/>
</a>
</g>
</g>
<!-- Node12 -->
<g id="Node000012" class="node">
<title>Node12</title>
<g id="a_Node000012"><a xlink:href="group__ms5837__base__driver.html#ga64182fb46f7111af0fc4b3faf90c7c6f" target="_top" xlink:title="set the device type">
<polygon fill="white" stroke="#666666" points="252.12,-20 158.88,-20 158.88,0 252.12,0 252.12,-20"/>
<text xml:space="preserve" text-anchor="middle" x="205.5" y="-6.5" font-family="Helvetica,sans-Serif" font-size="10.00">ms5837_set_type</text>
</a>
</g>
</g>
<!-- Node1&#45;&gt;Node12 -->
<g id="edge11_Node000001_Node000012" class="edge">
<title>Node1&#45;&gt;Node12</title>
<g id="a_edge11_Node000001_Node000012"><a xlink:title=" ">
<path fill="none" stroke="#63b8ff" d="M51.04,-201.87C56.29,-170.92 76.43,-76.76 133,-29 137.43,-25.26 142.51,-22.25 147.88,-19.83"/>
<polygon fill="#63b8ff" stroke="#63b8ff" points="148.93,-23.18 157.06,-16.39 146.47,-16.62 148.93,-23.18"/>
</a>
</g>
</g>
</g>
</svg>
